<svg xmlns="http://www.w3.org/2000/svg" viewBox="0 0 32 32" width="32" height="32">
  <defs>
    <linearGradient id="grad1" x1="0%" y1="0%" x2="100%" y2="100%">
      <stop offset="0%" style="stop-color:#10b981;stop-opacity:1" />
      <stop offset="100%" style="stop-color:#059669;stop-opacity:1" />
    </linearGradient>
  </defs>
  
  <!-- Background circle -->
  <circle cx="16" cy="16" r="15" fill="url(#grad1)" stroke="#047857" stroke-width="1"/>
  
  <!-- AI Brain/Circuit design -->
  <g fill="white" stroke="white" stroke-width="0.5">
    <!-- Central processor -->
    <rect x="13" y="13" width="6" height="6" rx="1" fill="white"/>
    
    <!-- Neural connections -->
    <circle cx="8" cy="8" r="1.5"/>
    <circle cx="24" cy="8" r="1.5"/>
    <circle cx="8" cy="24" r="1.5"/>
    <circle cx="24" cy="24" r="1.5"/>
    
    <!-- Connection lines -->
    <line x1="9.5" y1="8" x2="13" y2="13" stroke="white" stroke-width="1" opacity="0.8"/>
    <line x1="22.5" y1="8" x2="19" y2="13" stroke="white" stroke-width="1" opacity="0.8"/>
    <line x1="9.5" y1="24" x2="13" y2="19" stroke="white" stroke-width="1" opacity="0.8"/>
    <line x1="22.5" y1="24" x2="19" y2="19" stroke="white" stroke-width="1" opacity="0.8"/>
    
    <!-- Side processors -->
    <rect x="5" y="15" width="3" height="2" rx="0.5" fill="white" opacity="0.9"/>
    <rect x="24" y="15" width="3" height="2" rx="0.5" fill="white" opacity="0.9"/>
    
    <!-- Data flow indicators -->
    <circle cx="16" cy="6" r="1" fill="white" opacity="0.7"/>
    <circle cx="16" cy="26" r="1" fill="white" opacity="0.7"/>
    <circle cx="6" cy="16" r="1" fill="white" opacity="0.7"/>
    <circle cx="26" cy="16" r="1" fill="white" opacity="0.7"/>
  </g>
</svg> 